<mxfile host="65bd71144e">
    <diagram id="s6h_dg8u_3d9LiIChtcA" name="Index.html">
        <mxGraphModel dx="916" dy="536" grid="1" gridSize="10" guides="1" tooltips="1" connect="1" arrows="1" fold="1" page="1" pageScale="1" pageWidth="827" pageHeight="1169" math="0" shadow="0">
            <root>
                <mxCell id="0"/>
                <mxCell id="1" parent="0"/>
                <mxCell id="2" value="Alterando Visibilidade Elementos" style="text;html=1;strokeColor=none;fillColor=none;align=center;verticalAlign=middle;whiteSpace=wrap;rounded=0;" vertex="1" parent="1">
                    <mxGeometry x="270" y="10" width="200" height="90" as="geometry"/>
                </mxCell>
                <mxCell id="3" value="Actor" style="shape=umlActor;verticalLabelPosition=bottom;verticalAlign=top;html=1;outlineConnect=0;" vertex="1" parent="1">
                    <mxGeometry x="30" y="150" width="30" height="60" as="geometry"/>
                </mxCell>
                <mxCell id="4" value="Entrar na página" style="rounded=0;whiteSpace=wrap;html=1;" vertex="1" parent="1">
                    <mxGeometry x="130" y="140" width="120" height="60" as="geometry"/>
                </mxCell>
                <mxCell id="5" value="" style="endArrow=none;dashed=1;html=1;exitX=0.5;exitY=0.5;exitDx=0;exitDy=0;exitPerimeter=0;" edge="1" parent="1" source="3">
                    <mxGeometry width="50" height="50" relative="1" as="geometry">
                        <mxPoint x="70" y="220" as="sourcePoint"/>
                        <mxPoint x="120" y="180" as="targetPoint"/>
                    </mxGeometry>
                </mxCell>
                <mxCell id="6" value="" style="endArrow=none;dashed=1;html=1;" edge="1" parent="1">
                    <mxGeometry width="50" height="50" relative="1" as="geometry">
                        <mxPoint x="189.5" y="270" as="sourcePoint"/>
                        <mxPoint x="189.5" y="200" as="targetPoint"/>
                    </mxGeometry>
                </mxCell>
                <mxCell id="7" value="Clicar no Botão Indicado Para Ocultar o Elemento" style="rounded=0;whiteSpace=wrap;html=1;" vertex="1" parent="1">
                    <mxGeometry x="130" y="260" width="120" height="60" as="geometry"/>
                </mxCell>
                <mxCell id="8" value="Ocultar Elemento" style="shape=document;whiteSpace=wrap;html=1;boundedLbl=1;" vertex="1" parent="1">
                    <mxGeometry x="460" y="245" width="160" height="90" as="geometry"/>
                </mxCell>
                <mxCell id="i2g9osv-n_NbbS2vbWa6-9" value="" style="edgeStyle=none;html=1;" edge="1" parent="1" source="i2g9osv-n_NbbS2vbWa6-8" target="8">
                    <mxGeometry relative="1" as="geometry"/>
                </mxCell>
                <mxCell id="i2g9osv-n_NbbS2vbWa6-8" value="Página HTML Contendo Texto, o Elemento a Ser Ocultado e um botão com o evento em espera" style="rounded=0;whiteSpace=wrap;html=1;" vertex="1" parent="1">
                    <mxGeometry x="470" y="100" width="140" height="90" as="geometry"/>
                </mxCell>
                <mxCell id="i2g9osv-n_NbbS2vbWa6-10" value="" style="endArrow=none;dashed=1;html=1;" edge="1" parent="1">
                    <mxGeometry width="50" height="50" relative="1" as="geometry">
                        <mxPoint x="260" y="289.72" as="sourcePoint"/>
                        <mxPoint x="450" y="289.72" as="targetPoint"/>
                    </mxGeometry>
                </mxCell>
            </root>
        </mxGraphModel>
    </diagram>
    <diagram id="uPUo-JLZrhKwiPfQC072" name="Index,js">
        <mxGraphModel dx="663" dy="388" grid="1" gridSize="10" guides="1" tooltips="1" connect="1" arrows="1" fold="1" page="1" pageScale="1" pageWidth="827" pageHeight="1169" math="0" shadow="0">
            <root>
                <mxCell id="0"/>
                <mxCell id="1" parent="0"/>
                <mxCell id="2LLnqbPC3xIjTaph6Qij-1" value="Alterando Visibilidade Elementos" style="text;html=1;strokeColor=none;fillColor=none;align=center;verticalAlign=middle;whiteSpace=wrap;rounded=0;" vertex="1" parent="1">
                    <mxGeometry x="270" y="10" width="200" height="90" as="geometry"/>
                </mxCell>
                <mxCell id="LA1LGz0_ooUb2bN1klhH-2" value="" style="edgeStyle=none;html=1;" edge="1" parent="1" source="2LLnqbPC3xIjTaph6Qij-2" target="LA1LGz0_ooUb2bN1klhH-1">
                    <mxGeometry relative="1" as="geometry"/>
                </mxCell>
                <mxCell id="2LLnqbPC3xIjTaph6Qij-2" value="Incluir Evento no Input Botão, onde ao ser clicado pelo usuário será ativo a função para ocultar Objeto" style="shape=parallelogram;perimeter=parallelogramPerimeter;whiteSpace=wrap;html=1;fixedSize=1;" vertex="1" parent="1">
                    <mxGeometry x="265" y="210" width="210" height="140" as="geometry"/>
                </mxCell>
                <mxCell id="lG8GVgbO8pKKaE3-syrm-5" value="" style="edgeStyle=none;html=1;" edge="1" parent="1">
                    <mxGeometry relative="1" as="geometry">
                        <mxPoint x="370" y="180" as="sourcePoint"/>
                        <mxPoint x="370" y="210" as="targetPoint"/>
                    </mxGeometry>
                </mxCell>
                <mxCell id="LA1LGz0_ooUb2bN1klhH-4" value="" style="edgeStyle=none;html=1;" edge="1" parent="1" source="LA1LGz0_ooUb2bN1klhH-1">
                    <mxGeometry relative="1" as="geometry">
                        <mxPoint x="370" y="565" as="targetPoint"/>
                    </mxGeometry>
                </mxCell>
                <mxCell id="LA1LGz0_ooUb2bN1klhH-1" value="Função que irá Reconhecer e Elemento e alterar o estilo do Display para none" style="whiteSpace=wrap;html=1;" vertex="1" parent="1">
                    <mxGeometry x="310" y="390" width="120" height="90" as="geometry"/>
                </mxCell>
                <mxCell id="LA1LGz0_ooUb2bN1klhH-5" value="Fim" style="rounded=1;whiteSpace=wrap;html=1;" vertex="1" parent="1">
                    <mxGeometry x="310" y="570" width="120" height="60" as="geometry"/>
                </mxCell>
                <mxCell id="LA1LGz0_ooUb2bN1klhH-6" value="" style="rounded=1;whiteSpace=wrap;html=1;" vertex="1" parent="1">
                    <mxGeometry x="310" y="120" width="120" height="60" as="geometry"/>
                </mxCell>
            </root>
        </mxGraphModel>
    </diagram>
</mxfile>